<svg xmlns="http://www.w3.org/2000/svg" width="16" height="14" viewBox="0 0 16 14">
  <defs>
    <style>
      .cls-1 {
        fill: #2d3a4b;
        fill-rule: evenodd;
      }
    </style>
  </defs>
  <path id="_" data-name="î§" class="cls-1" d="M1530.4,827.264a0.5,0.5,0,0,1,.14.359v1a0.5,0.5,0,0,1-.14.36,0.511,0.511,0,0,1-.36.14h-1a0.478,0.478,0,0,1-.36-0.14,0.5,0.5,0,0,1-.14-0.36v-1a0.5,0.5,0,0,1,.14-0.359,0.475,0.475,0,0,1,.36-0.141h1A0.507,0.507,0,0,1,1530.4,827.264Zm14,0.5a0.532,0.532,0,0,1,0,.719,0.511,0.511,0,0,1-.36.14h-10.5a0.478,0.478,0,0,1-.36-0.14,0.532,0.532,0,0,1,0-.719,0.475,0.475,0,0,1,.36-0.141h10.5A0.507,0.507,0,0,1,1544.4,827.764Zm-14,5.5a0.5,0.5,0,0,1,.14.359v1a0.5,0.5,0,0,1-.14.359,0.507,0.507,0,0,1-.36.141h-1a0.475,0.475,0,0,1-.36-0.141,0.5,0.5,0,0,1-.14-0.359v-1a0.5,0.5,0,0,1,.14-0.359,0.475,0.475,0,0,1,.36-0.141h1A0.507,0.507,0,0,1,1530.4,833.264Zm14,0.5a0.5,0.5,0,0,1-.36.859h-10.5a0.475,0.475,0,0,1-.36-0.141,0.53,0.53,0,0,1,0-.718,0.475,0.475,0,0,1,.36-0.141h10.5A0.507,0.507,0,0,1,1544.4,833.764Zm-14-12.5a0.5,0.5,0,0,1,.14.359v1a0.5,0.5,0,0,1-.14.36,0.511,0.511,0,0,1-.36.14h-1a0.478,0.478,0,0,1-.36-0.14,0.5,0.5,0,0,1-.14-0.36v-1a0.5,0.5,0,0,1,.14-0.359,0.475,0.475,0,0,1,.36-0.141h1A0.507,0.507,0,0,1,1530.4,821.264Zm2.78,1.219a0.532,0.532,0,0,1,0-.719,0.475,0.475,0,0,1,.36-0.141h10.5a0.5,0.5,0,1,1,0,1h-10.5A0.475,0.475,0,0,1,1533.18,822.483Z" transform="translate(-1528.53 -821.125)"/>
</svg>
